<svg width="29" height="24" viewBox="0 0 29 24" fill="none" xmlns="http://www.w3.org/2000/svg">
<path d="M28.0352 3.73913C27.4563 3.10145 26.6568 2.72464 25.7471 2.72464H21.1711V2.66667C21.1711 1.94203 20.8954 1.24638 20.4268 0.782609C19.9582 0.289855 19.3241 0 18.635 0H10.365C9.64829 0 9.01426 0.289855 8.54563 0.782609C8.077 1.27536 7.80133 1.94203 7.80133 2.66667V2.72464H3.25285C2.34316 2.72464 1.54373 3.10145 0.964829 3.73913C0.385932 4.34783 0 5.21739 0 6.14493V20.5797C0 21.5362 0.358365 22.3768 0.964829 22.9855C1.54373 23.5942 2.37072 24 3.25285 24H25.7471C26.6568 24 27.4563 23.6232 28.0352 22.9855C28.6141 22.3768 29 21.5072 29 20.5797V6.14493C29 5.18841 28.6416 4.34783 28.0352 3.73913ZM27.5665 20.5797H27.539C27.539 21.1014 27.346 21.5652 27.0152 21.913C26.6844 22.2609 26.2433 22.4638 25.7471 22.4638H3.25285C2.75665 22.4638 2.31559 22.2609 1.98479 21.913C1.65399 21.5652 1.46103 21.1014 1.46103 20.5797V6.14493C1.46103 5.62319 1.65399 5.15942 1.98479 4.81159C2.31559 4.46377 2.75665 4.26087 3.25285 4.26087H8.57319C8.98669 4.26087 9.31749 3.91304 9.31749 3.47826V2.63768C9.31749 2.31884 9.42776 2.02899 9.62072 1.82609C9.81369 1.62319 10.0894 1.50725 10.3926 1.50725H18.635C18.9382 1.50725 19.2139 1.62319 19.4068 1.82609C19.5998 2.02899 19.7101 2.31884 19.7101 2.63768V3.47826C19.7101 3.91304 20.0409 4.26087 20.4544 4.26087H25.7747C26.2709 4.26087 26.712 4.46377 27.0428 4.81159C27.3736 5.15942 27.5665 5.62319 27.5665 6.14493V20.5797Z" fill="#99B1E6"/>
<path d="M14.5006 6.23242C12.6261 6.23242 10.917 7.04402 9.70403 8.31938C8.46354 9.62373 7.71924 11.3918 7.71924 13.3629C7.71924 15.3339 8.4911 17.131 9.70403 18.4063C10.9445 19.7107 12.6261 20.4933 14.5006 20.4933C16.3751 20.4933 18.0843 19.6817 19.2972 18.4063C20.5377 17.102 21.282 15.3339 21.282 13.3629C21.282 11.3918 20.5101 9.59474 19.2972 8.31938C18.0843 7.04402 16.3751 6.23242 14.5006 6.23242ZM18.2497 17.3339C17.2848 18.3194 15.9616 18.9571 14.5006 18.9571C13.0396 18.9571 11.7164 18.3194 10.7516 17.3339C9.78673 16.3194 9.20783 14.9281 9.20783 13.3918C9.20783 11.8556 9.8143 10.4643 10.7516 9.44981C11.7164 8.43532 13.0396 7.82662 14.5006 7.82662C15.9616 7.82662 17.2848 8.46431 18.2497 9.44981C19.2145 10.4643 19.7934 11.8556 19.7934 13.3918C19.8209 14.9281 19.2145 16.3194 18.2497 17.3339Z" fill="#99B1E6"/>
<path d="M24.3136 9.04761C25.0597 9.04761 25.6644 8.41173 25.6644 7.62732C25.6644 6.84292 25.0597 6.20703 24.3136 6.20703C23.5676 6.20703 22.9629 6.84292 22.9629 7.62732C22.9629 8.41173 23.5676 9.04761 24.3136 9.04761Z" fill="#99B1E6"/>
</svg>
