<svg width="24" height="24" viewBox="0 0 24 24" fill="none" xmlns="http://www.w3.org/2000/svg">
<path fill-rule="evenodd" clip-rule="evenodd" d="M7 5.5H11V4H7C5.34315 4 4 5.34315 4 7V17C4 18.6569 5.34315 20 7 20H17C18.6569 20 20 18.6569 20 17V13H18.5V17C18.5 17.8284 17.8284 18.5 17 18.5H7C6.17157 18.5 5.5 17.8284 5.5 17V7C5.5 6.17157 6.17157 5.5 7 5.5ZM15 5.5L17.4394 5.5L8.96967 13.9697L10.0303 15.0303L18.5 6.56072V9.00001H20V4.75C20 4.33579 19.6642 4.00001 19.25 4L15 4L15 5.5Z" fill="#0D4CD3"/>
</svg>
