<svg width="40" height="40" viewBox="0 0 40 40" fill="none" xmlns="http://www.w3.org/2000/svg">
  <rect width="40" height="40" rx="12" fill="#86909C"/>
  <path fill-rule="evenodd" clip-rule="evenodd" d="M23.4071 18.6067C22.5521 19.4617 21.3646 20 20.0504 20C18.7521 20 17.5487 19.4617 16.6937 18.6067C15.8387 17.7517 15.3004 16.5642 15.3004 15.25C15.3004 13.9358 15.8387 12.7483 16.6937 11.8933C17.5487 11.0383 18.7362 10.5 20.0504 10.5C21.3646 10.5 22.5521 11.0383 23.4071 11.8933C24.2621 12.7483 24.8004 13.9358 24.8004 15.25C24.8004 16.5642 24.2621 17.7517 23.4071 18.6067ZM20.0504 13.0808C19.4646 13.0808 18.9262 13.3183 18.5304 13.7142C18.1504 14.11 17.8971 14.6483 17.8971 15.2342C17.8971 15.82 18.1346 16.3583 18.5304 16.7542C18.9104 17.15 19.4487 17.3875 20.0504 17.3875C20.6362 17.3875 21.1746 17.15 21.5704 16.7542C21.9662 16.3742 22.2037 15.8358 22.2037 15.2342C22.2037 14.6483 21.9662 14.11 21.5704 13.7142C21.1904 13.3183 20.6521 13.0808 20.0504 13.0808ZM25.2117 20.0916L26.6504 21.9424C26.7322 22.035 26.7158 22.1584 26.585 22.2355C25.3752 23.1763 23.9693 23.7933 22.4979 24.1172L25.5387 29.1761C25.6205 29.3303 25.5224 29.5 25.3425 29.5H22.3671C22.269 29.5 22.1873 29.4383 22.1546 29.3612L20.0292 24.8883L17.9039 29.3612C17.8712 29.4537 17.7895 29.5 17.6914 29.5H14.7159C14.5524 29.5 14.438 29.3149 14.5198 29.1761L17.5606 24.1172C16.0892 23.7933 14.6832 23.1609 13.4734 22.2355C13.3917 22.1584 13.3753 22.035 13.4407 21.9424L14.8794 20.0916C14.9612 19.9991 15.1247 19.9836 15.2227 20.0608C16.5797 21.1558 18.2472 21.8653 20.0456 21.8653C21.8439 21.8653 23.5115 21.1558 24.8684 20.0608C24.9665 19.9682 25.13 19.9836 25.2117 20.0916Z" fill="white"/>
</svg>
