<svg width="40" height="40" viewBox="0 0 40 40" fill="none" xmlns="http://www.w3.org/2000/svg">
  <g clip-path="url(#clip0_60_12765)">
    <rect width="40" height="40" rx="12" fill="#100943"/>
    <path fill-rule="evenodd" clip-rule="evenodd" d="M20.0273 0C20.1928 3.12204 21.0455 9.23717 25.0039 13.5C30.5917 19.5176 38.027 19.9926 40.0039 20.0074V19.2C40.0039 12.4794 40.0039 9.11905 38.696 6.55211C37.5455 4.29417 35.7097 2.4584 33.4518 1.30792C30.8848 0 27.5245 0 20.8039 0H20.0273Z" fill="#ED143B"/>
    <path d="M24.5782 19.2238H14.3414V15.2489H24.5782C25.1762 15.2489 25.592 15.3512 25.8006 15.5299C26.0092 15.7085 26.1385 16.0396 26.1385 16.5235V17.9508C26.1385 18.4605 26.0092 18.7918 25.8006 18.9704C25.592 19.149 25.1762 19.2253 24.5782 19.2253V19.2238ZM25.2805 11.5015H10V28.5H14.3414V22.9697H22.3421L26.1385 28.5H31L26.8143 22.9438C28.3575 22.7194 29.0505 22.2554 29.6219 21.4906C30.1934 20.7258 30.4799 19.5032 30.4799 17.8714V16.5968C30.4799 15.6291 30.3756 14.8643 30.1934 14.2781C30.0112 13.6919 29.6998 13.1821 29.2575 12.7242C28.7904 12.2907 28.2703 11.9855 27.6459 11.7808C27.0214 11.6022 26.2413 11.5 25.2805 11.5V11.5015Z" fill="white"/>
  </g>
  <defs>
    <clipPath id="clip0_60_12765">
      <rect width="40" height="40" rx="12" fill="white"/>
    </clipPath>
  </defs>
</svg>
